<mxfile host="app.diagrams.net" modified="2022-12-09T01:23:32.356Z" agent="5.0 (Windows NT 10.0; Win64; x64) AppleWebKit/537.36 (KHTML, like Gecko) Chrome/106.0.0.0 Safari/537.36 OPR/92.0.0.0" version="20.6.2" etag="GJYXDNcPqcpkGJp-M_wI" type="github">
  <diagram id="fisMCbhxbF2AohXwZ6p7" name="Page-1">
    <mxGraphModel dx="2098" dy="687" grid="1" gridSize="10" guides="1" tooltips="1" connect="1" arrows="1" fold="1" page="1" pageScale="1" pageWidth="850" pageHeight="1100" math="0" shadow="0">
      <root>
        <mxCell id="0" />
        <mxCell id="1" parent="0" />
        <mxCell id="UekvsZQT7IO2MAeUNTFj-3" value="" style="edgeStyle=orthogonalEdgeStyle;rounded=0;orthogonalLoop=1;jettySize=auto;html=1;" edge="1" parent="1" source="UekvsZQT7IO2MAeUNTFj-1" target="UekvsZQT7IO2MAeUNTFj-2">
          <mxGeometry relative="1" as="geometry" />
        </mxCell>
        <mxCell id="UekvsZQT7IO2MAeUNTFj-4" value="" style="edgeStyle=orthogonalEdgeStyle;rounded=0;orthogonalLoop=1;jettySize=auto;html=1;" edge="1" parent="1" source="UekvsZQT7IO2MAeUNTFj-1" target="UekvsZQT7IO2MAeUNTFj-2">
          <mxGeometry relative="1" as="geometry" />
        </mxCell>
        <mxCell id="UekvsZQT7IO2MAeUNTFj-6" style="edgeStyle=orthogonalEdgeStyle;rounded=0;orthogonalLoop=1;jettySize=auto;html=1;" edge="1" parent="1" source="UekvsZQT7IO2MAeUNTFj-1" target="UekvsZQT7IO2MAeUNTFj-5">
          <mxGeometry relative="1" as="geometry" />
        </mxCell>
        <mxCell id="UekvsZQT7IO2MAeUNTFj-1" value="CARTAS" style="rounded=0;whiteSpace=wrap;html=1;" vertex="1" parent="1">
          <mxGeometry x="365" y="140" width="120" height="60" as="geometry" />
        </mxCell>
        <mxCell id="UekvsZQT7IO2MAeUNTFj-26" style="edgeStyle=orthogonalEdgeStyle;curved=1;rounded=0;orthogonalLoop=1;jettySize=auto;html=1;exitX=0;exitY=1;exitDx=0;exitDy=0;entryX=0.75;entryY=0;entryDx=0;entryDy=0;" edge="1" parent="1" source="UekvsZQT7IO2MAeUNTFj-2" target="UekvsZQT7IO2MAeUNTFj-7">
          <mxGeometry relative="1" as="geometry" />
        </mxCell>
        <mxCell id="UekvsZQT7IO2MAeUNTFj-27" style="edgeStyle=orthogonalEdgeStyle;curved=1;rounded=0;orthogonalLoop=1;jettySize=auto;html=1;exitX=1;exitY=1;exitDx=0;exitDy=0;entryX=0.5;entryY=0;entryDx=0;entryDy=0;" edge="1" parent="1" source="UekvsZQT7IO2MAeUNTFj-2" target="UekvsZQT7IO2MAeUNTFj-13">
          <mxGeometry relative="1" as="geometry" />
        </mxCell>
        <mxCell id="UekvsZQT7IO2MAeUNTFj-28" style="edgeStyle=orthogonalEdgeStyle;curved=1;rounded=0;orthogonalLoop=1;jettySize=auto;html=1;exitX=0.25;exitY=1;exitDx=0;exitDy=0;" edge="1" parent="1" source="UekvsZQT7IO2MAeUNTFj-2" target="UekvsZQT7IO2MAeUNTFj-9">
          <mxGeometry relative="1" as="geometry" />
        </mxCell>
        <mxCell id="UekvsZQT7IO2MAeUNTFj-29" style="edgeStyle=orthogonalEdgeStyle;curved=1;rounded=0;orthogonalLoop=1;jettySize=auto;html=1;exitX=0.75;exitY=1;exitDx=0;exitDy=0;" edge="1" parent="1" source="UekvsZQT7IO2MAeUNTFj-2" target="UekvsZQT7IO2MAeUNTFj-11">
          <mxGeometry relative="1" as="geometry" />
        </mxCell>
        <mxCell id="UekvsZQT7IO2MAeUNTFj-2" value="NORMAIS" style="whiteSpace=wrap;html=1;rounded=0;" vertex="1" parent="1">
          <mxGeometry x="50" y="250" width="120" height="60" as="geometry" />
        </mxCell>
        <mxCell id="UekvsZQT7IO2MAeUNTFj-25" style="edgeStyle=orthogonalEdgeStyle;curved=1;rounded=0;orthogonalLoop=1;jettySize=auto;html=1;" edge="1" parent="1" source="UekvsZQT7IO2MAeUNTFj-5" target="UekvsZQT7IO2MAeUNTFj-21">
          <mxGeometry relative="1" as="geometry" />
        </mxCell>
        <mxCell id="UekvsZQT7IO2MAeUNTFj-41" style="edgeStyle=orthogonalEdgeStyle;curved=1;rounded=0;orthogonalLoop=1;jettySize=auto;html=1;exitX=0;exitY=1;exitDx=0;exitDy=0;entryX=0.5;entryY=0;entryDx=0;entryDy=0;fontSize=15;" edge="1" parent="1" source="UekvsZQT7IO2MAeUNTFj-5" target="UekvsZQT7IO2MAeUNTFj-17">
          <mxGeometry relative="1" as="geometry" />
        </mxCell>
        <mxCell id="UekvsZQT7IO2MAeUNTFj-42" style="edgeStyle=orthogonalEdgeStyle;curved=1;rounded=0;orthogonalLoop=1;jettySize=auto;html=1;exitX=0.25;exitY=1;exitDx=0;exitDy=0;entryX=0.5;entryY=0;entryDx=0;entryDy=0;fontSize=15;" edge="1" parent="1" source="UekvsZQT7IO2MAeUNTFj-5" target="UekvsZQT7IO2MAeUNTFj-22">
          <mxGeometry relative="1" as="geometry" />
        </mxCell>
        <mxCell id="UekvsZQT7IO2MAeUNTFj-43" style="edgeStyle=orthogonalEdgeStyle;curved=1;rounded=0;orthogonalLoop=1;jettySize=auto;html=1;exitX=0.75;exitY=1;exitDx=0;exitDy=0;fontSize=15;" edge="1" parent="1" source="UekvsZQT7IO2MAeUNTFj-5" target="UekvsZQT7IO2MAeUNTFj-40">
          <mxGeometry relative="1" as="geometry" />
        </mxCell>
        <mxCell id="UekvsZQT7IO2MAeUNTFj-5" value="ESPECIAIS" style="whiteSpace=wrap;html=1;rounded=0;" vertex="1" parent="1">
          <mxGeometry x="570" y="210" width="120" height="60" as="geometry" />
        </mxCell>
        <mxCell id="UekvsZQT7IO2MAeUNTFj-34" style="edgeStyle=orthogonalEdgeStyle;curved=1;rounded=0;orthogonalLoop=1;jettySize=auto;html=1;exitX=0;exitY=1;exitDx=0;exitDy=0;fontSize=15;" edge="1" parent="1" source="UekvsZQT7IO2MAeUNTFj-7">
          <mxGeometry relative="1" as="geometry">
            <mxPoint x="-170" y="450" as="targetPoint" />
          </mxGeometry>
        </mxCell>
        <mxCell id="UekvsZQT7IO2MAeUNTFj-7" value="NOME" style="whiteSpace=wrap;html=1;rounded=0;" vertex="1" parent="1">
          <mxGeometry x="-60" y="335" width="100" height="50" as="geometry" />
        </mxCell>
        <mxCell id="UekvsZQT7IO2MAeUNTFj-36" style="edgeStyle=orthogonalEdgeStyle;curved=1;rounded=0;orthogonalLoop=1;jettySize=auto;html=1;exitX=0.5;exitY=1;exitDx=0;exitDy=0;fontSize=15;" edge="1" parent="1" source="UekvsZQT7IO2MAeUNTFj-9" target="UekvsZQT7IO2MAeUNTFj-32">
          <mxGeometry relative="1" as="geometry" />
        </mxCell>
        <mxCell id="UekvsZQT7IO2MAeUNTFj-9" value="VARIANTE" style="whiteSpace=wrap;html=1;rounded=0;" vertex="1" parent="1">
          <mxGeometry x="10" y="420" width="100" height="50" as="geometry" />
        </mxCell>
        <mxCell id="UekvsZQT7IO2MAeUNTFj-38" style="edgeStyle=orthogonalEdgeStyle;curved=1;rounded=0;orthogonalLoop=1;jettySize=auto;html=1;exitX=0.75;exitY=1;exitDx=0;exitDy=0;entryX=0.5;entryY=0;entryDx=0;entryDy=0;fontSize=15;" edge="1" parent="1" source="UekvsZQT7IO2MAeUNTFj-11" target="UekvsZQT7IO2MAeUNTFj-37">
          <mxGeometry relative="1" as="geometry" />
        </mxCell>
        <mxCell id="UekvsZQT7IO2MAeUNTFj-11" value="CARGO" style="whiteSpace=wrap;html=1;rounded=0;" vertex="1" parent="1">
          <mxGeometry x="130" y="420" width="90" height="60" as="geometry" />
        </mxCell>
        <mxCell id="UekvsZQT7IO2MAeUNTFj-13" value="ENERGIA" style="whiteSpace=wrap;html=1;rounded=0;" vertex="1" parent="1">
          <mxGeometry x="200" y="340" width="110" height="50" as="geometry" />
        </mxCell>
        <mxCell id="UekvsZQT7IO2MAeUNTFj-17" value="RARIDADE" style="whiteSpace=wrap;html=1;rounded=0;" vertex="1" parent="1">
          <mxGeometry x="410" y="290" width="120" height="60" as="geometry" />
        </mxCell>
        <mxCell id="UekvsZQT7IO2MAeUNTFj-21" value="PODER" style="rounded=0;whiteSpace=wrap;html=1;" vertex="1" parent="1">
          <mxGeometry x="720" y="280" width="120" height="60" as="geometry" />
        </mxCell>
        <mxCell id="UekvsZQT7IO2MAeUNTFj-22" value="PONTO ESPECIAL" style="rounded=0;whiteSpace=wrap;html=1;" vertex="1" parent="1">
          <mxGeometry x="490" y="370" width="120" height="60" as="geometry" />
        </mxCell>
        <mxCell id="UekvsZQT7IO2MAeUNTFj-31" value="&lt;ol style=&quot;font-size: 15px;&quot;&gt;&lt;li&gt;gandalf&lt;/li&gt;&lt;li&gt;curtas&lt;/li&gt;&lt;li&gt;nefesto&lt;/li&gt;&lt;li&gt;blackao&lt;/li&gt;&lt;li&gt;twelve&lt;/li&gt;&lt;li&gt;murillo&lt;/li&gt;&lt;li&gt;turu&lt;/li&gt;&lt;li&gt;pedro&lt;/li&gt;&lt;/ol&gt;" style="text;html=1;strokeColor=none;fillColor=none;align=center;verticalAlign=middle;whiteSpace=wrap;rounded=0;" vertex="1" parent="1">
          <mxGeometry x="-280" y="440" width="200" height="170" as="geometry" />
        </mxCell>
        <mxCell id="UekvsZQT7IO2MAeUNTFj-32" value="&lt;ol&gt;&lt;li&gt;farmaceutico&lt;/li&gt;&lt;li&gt;aaaaaaaaahhh&lt;/li&gt;&lt;li&gt;apenas&lt;/li&gt;&lt;li&gt;como muda a fonte&lt;/li&gt;&lt;li&gt;todo dia isso&lt;/li&gt;&lt;li&gt;leite com pera&lt;/li&gt;&lt;li&gt;aopa, bao&lt;/li&gt;&lt;li&gt;um abalo&lt;/li&gt;&lt;/ol&gt;" style="text;html=1;strokeColor=none;fillColor=none;align=center;verticalAlign=middle;whiteSpace=wrap;rounded=0;fontSize=15;" vertex="1" parent="1">
          <mxGeometry x="-90" y="510" width="190" height="160" as="geometry" />
        </mxCell>
        <mxCell id="UekvsZQT7IO2MAeUNTFj-37" value="&lt;ol&gt;&lt;li&gt;monark&lt;/li&gt;&lt;li&gt;sem cargo&lt;/li&gt;&lt;li&gt;people&lt;/li&gt;&lt;li&gt;gentleman&lt;/li&gt;&lt;li&gt;nobre&lt;/li&gt;&lt;li&gt;lord&lt;/li&gt;&lt;li&gt;ministro&lt;/li&gt;&lt;li&gt;Prime Minister&lt;/li&gt;&lt;li&gt;Premio Marino&lt;/li&gt;&lt;/ol&gt;" style="text;html=1;strokeColor=none;fillColor=none;align=center;verticalAlign=middle;whiteSpace=wrap;rounded=0;fontSize=15;" vertex="1" parent="1">
          <mxGeometry x="120" y="520" width="190" height="160" as="geometry" />
        </mxCell>
        <mxCell id="UekvsZQT7IO2MAeUNTFj-40" value="ENERGIA" style="rounded=0;whiteSpace=wrap;html=1;fontSize=15;" vertex="1" parent="1">
          <mxGeometry x="630" y="370" width="120" height="60" as="geometry" />
        </mxCell>
      </root>
    </mxGraphModel>
  </diagram>
</mxfile>
